<?xml version="1.0" standalone="no"?>
<!DOCTYPE svg PUBLIC "-//W3C//DTD SVG 20010904//EN"
 "http://www.w3.org/TR/2001/REC-SVG-20010904/DTD/svg10.dtd">
<svg version="1.0" xmlns="http://www.w3.org/2000/svg"
 width="512.000000pt" height="512.000000pt" viewBox="0 0 512.000000 512.000000"
 preserveAspectRatio="xMidYMid meet">
<metadata>
Created by potrace 1.14, written by Peter Selinger 2001-2017
</metadata>
<g transform="translate(0.000000,512.000000) scale(0.100000,-0.100000)"
fill="#000000" stroke="none">
<path d="M2330 5109 c-1142 -105 -2083 -965 -2285 -2089 -59 -326 -59 -594 0
-920 187 -1041 1014 -1868 2055 -2055 326 -59 594 -59 920 0 525 94 998 348
1375 736 415 428 661 967 715 1569 40 454 -55 942 -265 1360 -236 470 -632
872 -1098 1115 -437 228 -935 328 -1417 284z m45 -1870 c154 -628 180 -717
200 -697 3 2 77 299 165 659 88 360 165 671 171 692 l10 37 574 0 573 0 6 -62
c4 -35 40 -625 81 -1313 41 -687 77 -1278 80 -1313 l6 -62 -460 0 -460 0 -5
33 c-3 17 -14 288 -26 602 -23 648 -26 695 -45 695 -8 0 -63 -201 -169 -627
-86 -346 -161 -645 -167 -665 l-10 -38 -337 0 -337 0 -108 428 c-211 833 -229
902 -243 902 -9 0 -14 -13 -14 -37 0 -21 -11 -308 -25 -638 -14 -330 -25 -612
-25 -627 l0 -28 -460 0 -460 0 0 23 c0 13 36 618 80 1345 44 727 80 1335 80
1352 l0 30 578 0 578 0 169 -691z"/>
</g>
</svg>
